<?xml version="1.0" encoding="UTF-8"?>
<svg width="16px" height="16px" viewBox="0 0 16 16" version="1.1" xmlns="http://www.w3.org/2000/svg" xmlns:xlink="http://www.w3.org/1999/xlink">
    <!-- Generator: Sketch 46.2 (44496) - http://www.bohemiancoding.com/sketch -->
    <title>Page 1</title>
    <desc>Created with Sketch.</desc>
    <defs></defs>
    <g id="Homepage" stroke="none" stroke-width="1" fill="none" fill-rule="evenodd">
        <g id="Desktop" transform="translate(-650.000000, -3704.000000)" fill="#F59E50">
            <g id="Footer" transform="translate(0.000000, 3688.000000)">
                <g id="Social-Media" transform="translate(650.000000, 16.000000)">
                    <g id="Page-1">
                        <path d="M15.1168962,0 L0.883043894,0 C0.395301523,0 0,0.395301523 0,0.883043894 L0,15.1168962 C0,15.6045786 0.395301523,16 0.883043894,16 L8.5461024,16 L8.5461024,9.80394537 L6.4609678,9.80394537 L6.4609678,7.38921299 L8.5461024,7.38921299 L8.5461024,5.60843778 C8.5461024,3.54188726 9.80826168,2.41659079 11.6518031,2.41659079 C12.534907,2.41659079 13.2938571,2.48229454 13.5150078,2.51166938 L13.5150078,4.67138013 L12.2364226,4.67197962 C11.233841,4.67197962 11.0396673,5.14839169 11.0396673,5.84751307 L11.0396673,7.38921299 L13.4308398,7.38921299 L13.1195264,9.80394537 L11.0396673,9.80394537 L11.0396673,16 L15.1168962,16 C15.6045786,16 15.9999401,15.6045786 15.9999401,15.1168962 L15.9999401,0.883043894 C15.9999401,0.395301523 15.6045786,0 15.1168962,0" id="Fill-1"></path>
                    </g>
                </g>
            </g>
        </g>
    </g>
</svg>