<?xml version="1.0" encoding="UTF-8"?>
<svg width="16px" height="16px" viewBox="0 0 16 16" version="1.1" xmlns="http://www.w3.org/2000/svg" xmlns:xlink="http://www.w3.org/1999/xlink">
    <!-- Generator: Sketch 46.2 (44496) - http://www.bohemiancoding.com/sketch -->
    <title>Page 1</title>
    <desc>Created with Sketch.</desc>
    <defs></defs>
    <g id="Homepage" stroke="none" stroke-width="1" fill="none" fill-rule="evenodd">
        <g id="Desktop" transform="translate(-690.000000, -3704.000000)">
            <g id="Footer" transform="translate(0.000000, 3688.000000)">
                <g id="Social-Media" transform="translate(650.000000, 16.000000)">
                    <g id="Page-1" transform="translate(40.000000, 0.000000)">
                        <g id="Group-3" transform="translate(0.000000, 0.026646)"></g>
                        <path d="M7.9816396,0.0316863366 C5.81397228,0.0316863366 5.54213069,0.0408744554 4.69083564,0.0797180198 C3.84125149,0.118466535 3.26106931,0.253405149 2.75334653,0.450727921 C2.22851485,0.654672475 1.78336634,0.927591287 1.33964356,1.37131406 C0.895889109,1.81506851 0.62300198,2.26018535 0.419025743,2.78501703 C0.22170297,3.2927398 0.0867960396,3.87292198 0.0480158416,4.72250614 C0.00917227723,5.57383287 1.58415842e-05,5.84561109 1.58415842e-05,8.0133101 C1.58415842e-05,10.1810091 0.00917227723,10.452819 0.0480158416,11.3041457 C0.0867960396,12.1536982 0.22170297,12.7339121 0.419025743,13.2416032 C0.62300198,13.7664349 0.895889109,14.2115834 1.33964356,14.6553061 C1.78336634,15.0990606 2.22851485,15.3719477 2.75334653,15.5759556 C3.26106931,15.7732467 3.84125149,15.9081853 4.69083564,15.9469655 C5.54213069,15.9857774 5.81397228,15.9949655 7.9816396,15.9949655 C10.1493386,15.9949655 10.4211168,15.9857774 11.2724436,15.9469655 C12.1220277,15.9081853 12.7022099,15.7732467 13.2099327,15.5759556 C13.734796,15.3719477 14.1799129,15.0990606 14.6236356,14.6553061 C15.0673901,14.2115834 15.3402772,13.7664665 15.5442535,13.2416032 C15.7415762,12.7339121 15.8765149,12.1536982 15.9152634,11.3041457 C15.9541069,10.452819 15.963295,10.1810091 15.963295,8.0133101 C15.963295,5.84564277 15.9541069,5.57383287 15.9152634,4.72250614 C15.8765149,3.87292198 15.7415762,3.2927398 15.5442535,2.78501703 C15.3402772,2.26018535 15.0673901,1.81506851 14.6236356,1.37131406 C14.1799129,0.927591287 13.734796,0.654672475 13.2099327,0.450727921 C12.7022099,0.253405149 12.1220277,0.118466535 11.2724436,0.0797180198 C10.4211168,0.0408744554 10.1493386,0.0316863366 7.9816396,0.0316863366 M7.9816396,1.46981703 C10.1128396,1.46981703 10.3652594,1.47792792 11.2068911,1.51632792 C11.9850931,1.55184475 12.4077149,1.68187248 12.6889663,1.79117941 C13.0615287,1.93597149 13.3274455,2.1089299 13.6067327,2.38821703 C13.8860198,2.66753584 14.0589782,2.93342099 14.203802,3.30598337 C14.3130772,3.58723485 14.443105,4.00985663 14.4786218,4.78805861 C14.5169901,5.6296903 14.5251327,5.88214178 14.5251327,8.0133101 C14.5251327,10.1445101 14.5169901,10.3969616 14.4786218,11.2385616 C14.443105,12.0167952 14.3130772,12.439417 14.203802,12.7206685 C14.0589782,13.0931992 13.8860198,13.359116 13.6067327,13.6384032 C13.3274455,13.917722 13.0615287,14.0906804 12.6889663,14.2354725 C12.4077149,14.3447477 11.9850931,14.4748071 11.2068911,14.5102923 C10.3653861,14.5486923 10.112998,14.5568349 7.9816396,14.5568349 C5.85028119,14.5568349 5.59789307,14.5486923 4.75638812,14.5102923 C3.97818614,14.4748071 3.55553267,14.3447477 3.27428119,14.2354725 C2.9017505,14.0906804 2.63583366,13.917722 2.35654653,13.6384032 C2.07725941,13.359116 1.90426931,13.0931992 1.75947723,12.7206685 C1.65020198,12.439417 1.52017426,12.0167952 1.48465743,11.2385933 C1.44625743,10.3969616 1.43814653,10.1445101 1.43814653,8.0133101 C1.43814653,5.88214178 1.44625743,5.6296903 1.48465743,4.78805861 C1.52017426,4.00985663 1.65020198,3.58723485 1.75947723,3.30598337 C1.90426931,2.93342099 2.07725941,2.66753584 2.35654653,2.38824871 C2.63583366,2.1089299 2.9017505,1.93597149 3.27428119,1.79117941 C3.55553267,1.68187248 3.97818614,1.55184475 4.75635644,1.51632792 C5.5980198,1.47792792 5.8504396,1.46981703 7.9816396,1.46981703" id="Fill-1" fill="#F59E50"></path>
                        <path d="M7.9816396,10.6738725 C6.51226931,10.6738725 5.32107723,9.4826804 5.32107723,8.0133101 C5.32107723,6.5439398 6.51226931,5.35277941 7.9816396,5.35277941 C9.4510099,5.35277941 10.642202,6.5439398 10.642202,8.0133101 C10.642202,9.4826804 9.4510099,10.6738725 7.9816396,10.6738725 M7.9816396,3.91464871 C5.71800396,3.91464871 3.88294653,5.74967446 3.88294653,8.0133101 C3.88294653,10.2769774 5.71800396,12.1120032 7.9816396,12.1120032 C10.2452752,12.1120032 12.080301,10.2769774 12.080301,8.0133101 C12.080301,5.74967446 10.2452752,3.91464871 7.9816396,3.91464871" id="Fill-4" fill="#F59E50"></path>
                        <path d="M13.2000507,3.7527097 C13.2000507,4.28169188 12.7712507,4.71049188 12.2422685,4.71049188 C11.7132863,4.71049188 11.2844547,4.28169188 11.2844547,3.7527097 C11.2844547,3.22372752 11.7132863,2.79492752 12.2422685,2.79492752 C12.7712507,2.79492752 13.2000507,3.22372752 13.2000507,3.7527097" id="Fill-6" fill="#F59E50"></path>
                    </g>
                </g>
            </g>
        </g>
    </g>
</svg>