<?xml version="1.0" encoding="UTF-8"?>
<svg width="16px" height="16px" viewBox="0 0 16 16" version="1.1" xmlns="http://www.w3.org/2000/svg" xmlns:xlink="http://www.w3.org/1999/xlink">
  <title>Page 1</title>
  <desc>Created with Sketch.</desc>
  <defs></defs>
  <g id="Homepage" stroke="none" stroke-width="1" fill="none" fill-rule="evenodd">
    <g id="Desktop" transform="translate(-774.000000, -3704.000000)" fill="#F59E50">
      <g id="Footer" transform="translate(0.000000, 3688.000000)">
        <g id="Social-Media" transform="translate(650.000000, 16.000000)">
          <g id="Page-1" transform="translate(124.000000, 0.000000)">
            <path
              d="M13.6341333,13.6336889 L11.2612444,13.6336889 L11.2612444,9.9208 C11.2612444,9.03502222 11.2461333,7.89591111 10.0283556,7.89591111 C8.79324444,7.89591111 8.60524444,8.86124444 8.60524444,9.85724444 L8.60524444,13.6336889 L6.23502222,13.6336889 L6.23502222,5.99813333 L8.50968889,5.99813333 L8.50968889,7.04213333 L8.54213333,7.04213333 C8.85857778,6.44168889 9.6328,5.8088 10.7874667,5.8088 C13.1901333,5.8088 13.6341333,7.38968889 13.6341333,9.44613333 L13.6341333,13.6336889 Z M3.55902222,4.95502222 C2.7968,4.95502222 2.18213333,4.33857778 2.18213333,3.57857778 C2.18213333,2.81902222 2.7968,2.20257778 3.55902222,2.20257778 C4.31813333,2.20257778 4.93457778,2.81902222 4.93457778,3.57857778 C4.93457778,4.33857778 4.31813333,4.95502222 3.55902222,4.95502222 L3.55902222,4.95502222 Z M2.37057778,13.6336889 L4.74613333,13.6336889 L4.74613333,5.99813333 L2.37057778,5.99813333 L2.37057778,13.6336889 Z M14.8159111,-8.88888889e-05 L1.18035556,-8.88888889e-05 C0.529244444,-8.88888889e-05 -8.88888889e-05,0.516355556 -8.88888889e-05,1.15368889 L-8.88888889e-05,14.8456889 C-8.88888889e-05,15.4825778 0.529244444,15.9999111 1.18035556,15.9999111 L14.8159111,15.9999111 C15.4683556,15.9999111 15.9994667,15.4825778 15.9994667,14.8456889 L15.9994667,1.15368889 C15.9994667,0.516355556 15.4683556,-8.88888889e-05 14.8159111,-8.88888889e-05 L14.8159111,-8.88888889e-05 Z"
              id="Fill-1"></path>
          </g>
        </g>
      </g>
    </g>
  </g>
</svg>
