<?xml version="1.0" encoding="UTF-8"?>
<svg width="36px" height="36px" viewBox="0 0 36 36" version="1.1" xmlns="http://www.w3.org/2000/svg" xmlns:xlink="http://www.w3.org/1999/xlink">
    <!-- Generator: Sketch 46.2 (44496) - http://www.bohemiancoding.com/sketch -->
    <title>Logo Mark/Green</title>
    <desc>Created with Sketch.</desc>
    <defs>
        <polygon id="path-1" points="35.8518772 0 5.97510373e-05 0 5.97510373e-05 35.999985 35.8518772 35.999985 35.8518772 4.26325641e-15"></polygon>
    </defs>
    <g id="Homepage" stroke="none" stroke-width="1" fill="none" fill-rule="evenodd">
        <g id="Mobile" transform="translate(-170.000000, -12.000000)">
            <g id="Navigation/Mobile/Primary">
                <g id="Logo-Mark/Dark-Green" transform="translate(170.000000, 12.000000)">
                    <g>
                        <g id="Group-3">
                            <mask id="mask-2" fill="white">
                                <use xlink:href="#path-1"></use>
                            </mask>
                            <g id="Clip-2"></g>
                            <path d="M34.8832382,15.575385 L32.9795701,17.486985 L28.9317361,13.422285 L28.9317361,8.401785 L34.8832382,14.378085 C35.2118689,14.708235 35.2118689,15.245235 34.8832382,15.575385 L34.8832382,15.575385 Z M34.8832382,20.424585 C35.2118689,20.754735 35.2118689,21.291735 34.8832382,21.621885 L28.9317361,27.598185 L28.9317361,22.577835 L32.9795701,18.512985 L34.8832382,20.424585 Z M28.2090473,31.755135 C28.2090473,32.221935 27.8309726,32.601585 27.3661095,32.601585 L24.9708398,32.601585 L28.2090473,29.349885 L28.2090473,31.755135 Z M21.5327651,35.027985 C21.2165328,35.345685 20.6574124,35.345985 20.3405826,35.027985 L18.6469394,33.327285 L23.2264083,33.327285 L21.5327651,35.027985 Z M15.5113544,35.027985 C15.1948232,35.345685 14.6357029,35.345985 14.3190224,35.027985 L12.6255286,33.327285 L17.2049975,33.327285 L15.5113544,35.027985 Z M8.48582739,32.601585 C8.02096432,32.601585 7.64288963,32.221935 7.64288963,31.755135 L7.64288963,29.349885 L10.8810971,32.601585 L8.48582739,32.601585 Z M0.968698755,21.621885 C0.64006805,21.291735 0.64006805,20.754735 0.968698755,20.424585 L2.8723668,18.512985 L6.92020083,22.577835 L6.92020083,27.598185 L0.968698755,21.621885 Z M0.968698755,15.575385 C0.64006805,15.245235 0.64006805,14.708235 0.968698755,14.378085 L6.92020083,8.401785 L6.92020083,13.422285 L2.8723668,17.486985 L0.968698755,15.575385 Z M7.64288963,4.244835 C7.64288963,3.778185 8.02096432,3.398385 8.48582739,3.398385 L10.8810971,3.398385 L7.64288963,6.650085 L7.64288963,4.244835 Z M14.3190224,0.972135 C14.6360017,0.653985 15.1949726,0.654435 15.5113544,0.972135 L17.2049975,2.672685 L12.6255286,2.672685 L14.3190224,0.972135 Z M20.3405826,0.972135 C20.4989228,0.812985 20.7105909,0.725535 20.9365992,0.725535 C21.1627568,0.725535 21.3745743,0.812985 21.5327651,0.972135 L23.2264083,2.672685 L18.6469394,2.672685 L20.3405826,0.972135 Z M18.949429,3.398385 L23.9490971,3.398385 L28.2090473,7.676085 L28.2090473,12.696735 L18.949429,3.398385 Z M7.64288963,12.696735 L7.64288963,7.676085 L11.9028398,3.398385 L16.9025079,3.398385 L7.64288963,12.696735 Z M6.92020083,21.551685 L3.38323817,17.999985 L6.92020083,14.448285 L6.92020083,21.551685 Z M16.9025079,32.601585 L11.9028398,32.601585 L7.64288963,28.323885 L7.64288963,23.303385 L16.9025079,32.601585 Z M28.2090473,23.303385 L28.2090473,28.323885 L23.9490971,32.601585 L18.949429,32.601585 L28.2090473,23.303385 Z M28.9317361,14.448285 L32.4686988,17.999985 L28.9317361,21.551685 L28.9317361,14.448285 Z M28.2090473,22.277385 L17.9276863,32.601585 L17.9242506,32.601585 L7.64288963,22.277385 L7.64288963,13.722585 L17.9242506,3.398385 L17.9276863,3.398385 L28.2090473,13.722585 L28.2090473,22.277385 Z M27.3661095,3.398385 C27.8309726,3.398385 28.2090473,3.778185 28.2090473,4.244835 L28.2090473,6.650085 L24.9708398,3.398385 L27.3661095,3.398385 Z M35.3941095,13.865085 L28.9317361,7.375635 L28.9317361,4.244835 C28.9317361,3.377985 28.2293627,2.672685 27.3661095,2.672685 L24.2483004,2.672685 L22.0436365,0.458985 C21.7490639,0.162885 21.3559021,-1.5e-05 20.9365992,-1.5e-05 C20.5174456,-1.5e-05 20.1244332,0.162885 19.8297112,0.458985 L17.9258938,2.370585 L16.0222257,0.458985 C15.7275037,0.162885 15.3344913,-1.5e-05 14.9151884,-1.5e-05 C14.4960349,-1.5e-05 14.102873,0.162885 13.8083004,0.458985 L11.6036365,2.672685 L8.48582739,2.672685 C7.62257427,2.672685 6.92020083,3.377985 6.92020083,4.244835 L6.92020083,7.375635 L0.457827386,13.865085 C-0.152529461,14.477985 -0.152529461,15.475485 0.457827386,16.088385 L2.36149544,17.999985 L0.457827386,19.911585 C-0.152529461,20.524485 -0.152529461,21.521985 0.457827386,22.134885 L6.92020083,28.624335 L6.92020083,31.755135 C6.92020083,32.621985 7.62257427,33.327285 8.48582739,33.327285 L11.6036365,33.327285 L13.8083004,35.540985 C14.102873,35.837085 14.4960349,35.999985 14.9151884,35.999985 C15.3344913,35.999985 15.7275037,35.837085 16.0222257,35.540985 L17.9258938,33.629385 L19.8297112,35.540985 C20.1244332,35.837085 20.5174456,35.999985 20.9365992,35.999985 C21.3559021,35.999985 21.7490639,35.837085 22.0436365,35.540985 L24.2483004,33.327285 L27.3661095,33.327285 C28.2293627,33.327285 28.9317361,32.621985 28.9317361,31.755135 L28.9317361,28.624335 L35.3941095,22.134885 C36.0044664,21.521985 36.0044664,20.524485 35.3941095,19.911585 L33.4904415,17.999985 L35.3941095,16.088385 C36.0044664,15.475485 36.0044664,14.477985 35.3941095,13.865085 L35.3941095,13.865085 Z" id="Fill-1" fill="#fff" mask="url(#mask-2)"></path>
                        </g>
                        <path d="M20.1757698,16.1207463 C20.1757698,16.7518629 19.8257725,17.1628471 18.8921949,17.1628471 L16.7327972,17.1628471 L16.7327972,15.1669411 L18.9504021,15.1669411 C19.8257725,15.1669411 20.1757698,15.5777737 20.1757698,16.1207463 L20.1757698,16.1207463 Z M20.5257672,20.0982975 C20.5257672,20.8026903 20.1174118,21.2723867 19.1690562,21.2723867 L16.7327972,21.2723867 L16.7327972,18.982617 L19.1836834,18.982617 C20.0590538,18.982617 20.5257672,19.393753 20.5257672,20.0982975 L20.5257672,20.0982975 Z M14.0487805,13.1707317 L14.0487805,23.2682927 L19.7674144,23.2682927 C22.0575522,23.2682927 23.2682927,21.9913437 23.2682927,20.274282 C23.2682927,19.1001928 22.55352,18.1463876 21.2844215,17.925952 L21.2844215,17.8672399 C22.3930731,17.5885474 22.8599373,16.7664271 22.8599373,15.8126219 C22.8599373,14.1542722 21.7657621,13.1707317 19.4753227,13.1707317 L14.0487805,13.1707317 Z" id="Fill-4" fill="#fff"></path>
                    </g>
                </g>
            </g>
        </g>
    </g>
</svg>
