<?xml version="1.0" encoding="UTF-8"?>
<svg width="160px" height="40px" viewBox="0 0 160 40" version="1.1" xmlns="http://www.w3.org/2000/svg" xmlns:xlink="http://www.w3.org/1999/xlink">
    <!-- Generator: Sketch 46.2 (44496) - http://www.bohemiancoding.com/sketch -->
    <title>Full Logo/Dark Green</title>
    <desc>Created with Sketch.</desc>
    <defs>
        <polygon id="path-1" points="0 40 159.5902 40 159.5902 0 0 0"></polygon>
    </defs>
    <g id="Symbols" stroke="none" stroke-width="1" fill="none" fill-rule="evenodd">
        <g id="Navigation/Desktop/Primary" transform="translate(-56.000000, -16.000000)">
            <g id="Full-Logo/Green">
                <g transform="translate(56.000000, 16.000000)">
                    <g>
                        <path d="M52.72344,14.81348 L55.41604,14.81348 C56.46404,14.81348 56.91564,14.29748 56.91564,13.52368 C56.91564,12.74968 56.39964,12.29808 55.43224,12.29808 L52.72344,12.29808 L52.72344,14.81348 Z M52.72344,8.10608 L52.72344,10.29888 L55.10984,10.29888 C56.14164,10.29888 56.52844,9.84728 56.52844,9.15408 C56.52844,8.55748 56.14164,8.10608 55.17404,8.10608 L52.72344,8.10608 Z M59.94664,13.71708 C59.94664,15.60348 58.60824,17.00608 56.07704,17.00608 L49.75684,17.00608 L49.75684,5.91328 L55.75444,5.91328 C58.28584,5.91328 59.49524,6.99368 59.49524,8.81548 C59.49524,9.86348 58.97924,10.76648 57.75364,11.07268 L57.75364,11.13728 C59.15664,11.37928 59.94664,12.42708 59.94664,13.71708 Z" id="Fill-1" fill="#0A4F56"></path>
                        <path d="M64.65508,17.19952 C65.68688,17.19952 66.58968,16.74812 67.04148,15.90972 L67.10568,15.90972 L67.10568,17.00612 L69.81448,17.00612 L69.81448,9.13792 L66.97668,9.13792 L66.97668,13.32992 C66.97668,14.49092 66.39628,15.13572 65.55788,15.13572 C64.84848,15.13572 64.33248,14.74892 64.33248,13.58792 L64.33248,9.13792 L61.49468,9.13792 L61.49468,13.89452 C61.49468,16.36132 62.97808,17.19952 64.65508,17.19952" id="Fill-3" fill="#0A4F56"></path>
                        <path d="M74.716,13.6042 C74.716,12.266 75.2804,11.3952 76.4576,11.3952 C76.7638,11.3952 77.0702,11.4758 77.425,11.6532 L77.8118,9.2668 C77.4086,8.9928 77.038,8.9444 76.7156,8.9444 C75.716,8.9444 75.0226,9.5088 74.6358,10.2988 L74.587,10.2988 L74.587,9.138 L71.8784,9.138 L71.8784,17.0062 L74.716,17.0062 L74.716,13.6042 Z" id="Fill-5" fill="#0A4F56"></path>
                        <mask id="mask-2" fill="white">
                            <use xlink:href="#path-1"></use>
                        </mask>
                        <g id="Clip-8"></g>
                        <polygon id="Fill-7" fill="#0A4F56" mask="url(#mask-2)" points="78.9084 17.0062 81.746 17.0062 81.746 5.2038 78.9084 5.2038"></polygon>
                        <polygon id="Fill-9" fill="#0A4F56" mask="url(#mask-2)" points="83.7456 7.5256 86.712 7.5256 86.712 5.2038 83.7456 5.2038"></polygon>
                        <polygon id="Fill-10" fill="#0A4F56" mask="url(#mask-2)" points="83.81 17.0062 86.6476 17.0062 86.6476 9.138 83.81 9.138"></polygon>
                        <path d="M93.8707,8.94434 C92.8389,8.94434 91.9361,9.39594 91.4847,10.23414 L91.4201,10.23414 L91.4201,9.13794 L88.7113,9.13794 L88.7113,17.00614 L91.5493,17.00614 L91.5493,12.81394 C91.5493,11.65314 92.1295,11.00814 92.9679,11.00814 C93.6773,11.00814 94.1933,11.39514 94.1933,12.55594 L94.1933,17.00614 L97.0311,17.00614 L97.0311,12.24974 C97.0311,9.78274 95.5477,8.94434 93.8707,8.94434" id="Fill-11" fill="#0A4F56" mask="url(#mask-2)"></path>
                        <path d="M103.0293,15.2003 C101.9973,15.2003 101.4815,14.3619 101.4815,13.1365 C101.4815,11.9113 101.9973,10.9439 103.0293,10.9439 C104.0611,10.9439 104.6417,11.8467 104.6417,13.0719 C104.6417,14.2975 104.0611,15.2003 103.0293,15.2003 L103.0293,15.2003 Z M104.7707,10.1699 L104.7063,10.1699 C104.3193,9.4603 103.5451,8.9443 102.3199,8.9443 C100.2561,8.9443 98.5793,10.4279 98.5793,13.1365 C98.5793,15.8455 100.2561,17.1995 102.1911,17.1995 C103.5451,17.1995 104.3193,16.6837 104.7063,15.9743 L104.7707,15.9743 L104.7707,16.5547 C104.7707,18.1025 104.3835,18.8765 102.9651,18.8765 C102.0619,18.8765 101.5459,18.4895 101.4815,17.9735 L98.8373,17.9735 C98.9663,19.8761 100.4495,20.6823 102.9651,20.6823 C105.9639,20.6823 107.4793,19.4731 107.4793,16.5547 L107.4793,9.1379 L104.7707,9.1379 L104.7707,10.1699 Z" id="Fill-12" fill="#0A4F56" mask="url(#mask-2)"></path>
                        <path d="M113.26796,17.00616 L114.63836,17.00616 L114.63836,14.81356 L113.92896,14.81356 C113.02616,14.81356 112.83276,14.49096 112.83276,13.65236 L112.83276,11.13736 L114.63836,11.13736 L114.63836,9.13796 L112.83276,9.13796 L112.83276,6.75176 L109.99476,6.75176 L109.99476,9.13796 L108.51156,9.13796 L108.51156,11.13736 L109.99476,11.13736 L109.99476,13.84596 C109.99476,16.29676 110.63976,17.00616 113.26796,17.00616" id="Fill-13" fill="#0A4F56" mask="url(#mask-2)"></path>
                        <path d="M120.31406,10.95986 C121.31366,10.95986 121.92626,11.71786 121.92626,13.07206 C121.92626,14.42646 121.31366,15.20026 120.31406,15.20026 C119.31446,15.20026 118.70166,14.42646 118.70166,13.07206 C118.70166,11.71786 119.31446,10.95986 120.31406,10.95986 M120.31406,17.19946 C122.89366,17.19946 124.82846,15.71626 124.82846,13.07206 C124.82846,10.36346 122.95826,8.94426 120.31406,8.94426 C117.73446,8.94426 115.79946,10.42786 115.79946,13.07206 C115.79946,15.78086 117.66966,17.19946 120.31406,17.19946" id="Fill-14" fill="#0A4F56" mask="url(#mask-2)"></path>
                        <path d="M131.92324,12.55596 L131.92324,17.00616 L134.76084,17.00616 L134.76084,12.24976 C134.76084,9.78276 133.27764,8.94436 131.60064,8.94436 C130.56884,8.94436 129.66604,9.39596 129.21424,10.23416 L129.15004,10.23416 L129.15004,9.13796 L126.44124,9.13796 L126.44124,17.00616 L129.27884,17.00616 L129.27884,12.81396 C129.27884,11.65316 129.85944,11.00816 130.69784,11.00816 C131.40724,11.00816 131.92324,11.39516 131.92324,12.55596" id="Fill-15" fill="#0A4F56" mask="url(#mask-2)"></path>
                        <path d="M55.62382,24.56328 C56.91362,24.56328 57.62302,25.14368 57.81642,25.78868 L60.71882,25.78868 C60.44462,23.75728 58.59042,22.11268 55.62382,22.11268 C51.94762,22.11268 49.69042,24.49888 49.69042,27.85268 C49.69042,31.09348 51.77002,33.59248 55.36582,33.59248 C56.84922,33.59248 57.84882,33.12508 58.52582,32.39928 L58.59042,32.39928 L58.78402,33.39888 L60.65402,33.39888 L60.65402,27.27208 L55.62382,27.27208 L55.62382,29.33588 L58.12262,29.33588 C57.99402,30.48068 56.99442,31.14168 55.62382,31.14168 C53.81802,31.14168 52.72142,29.91648 52.72142,27.85268 C52.72142,25.78868 53.88222,24.56328 55.62382,24.56328" id="Fill-16" fill="#0A4F56" mask="url(#mask-2)"></path>
                        <path d="M67.61972,30.36778 C67.61972,31.39978 66.79772,31.78658 66.07192,31.78658 C65.52392,31.78658 65.16912,31.56078 65.16912,31.01258 C65.16912,30.62578 65.42712,30.31958 66.00752,30.23858 L66.91032,30.10978 C67.23292,30.06158 67.47492,29.94878 67.61972,29.73898 L67.61972,30.36778 Z M66.52372,25.33718 C64.60492,25.33718 62.84752,26.11118 62.65392,28.17498 L65.29832,28.17498 C65.36252,27.49778 65.76552,27.14298 66.52372,27.14298 C67.29752,27.14298 67.61972,27.59458 67.61972,28.04598 C67.61972,28.51358 67.42632,28.65878 66.65232,28.75538 L65.16912,28.94878 C63.25032,29.20678 62.39592,29.98058 62.39592,31.33518 C62.39592,32.65738 63.23432,33.59238 65.10452,33.59238 C66.39452,33.59238 67.21652,33.12498 67.68432,32.46378 L67.74892,32.46378 L67.74892,33.39898 L70.45772,33.39898 L70.45772,28.17498 C70.45772,26.24018 69.16752,25.33718 66.52372,25.33718 L66.52372,25.33718 Z" id="Fill-17" fill="#0A4F56" mask="url(#mask-2)"></path>
                        <path d="M82.96972,25.3372 C82.05052,25.3372 80.93812,25.6436 80.29332,26.8206 C79.79332,25.7402 78.77752,25.3372 77.61672,25.3372 C76.58472,25.3372 75.68192,25.7888 75.23052,26.627 L75.16572,26.627 L75.16572,25.5308 L72.45712,25.5308 L72.45712,33.399 L75.29492,33.399 L75.29492,29.1102 C75.29492,27.9492 75.89132,27.401 76.64932,27.401 C77.29412,27.401 77.81012,27.7236 77.81012,28.8844 L77.81012,33.399 L80.64792,33.399 L80.64792,29.094 C80.64792,27.9492 81.24432,27.401 82.00232,27.401 C82.64752,27.401 83.16332,27.7236 83.16332,28.8844 L83.16332,33.399 L86.00072,33.399 L86.00072,28.6426 C86.00072,26.1756 84.64672,25.3372 82.96972,25.3372" id="Fill-18" fill="#0A4F56" mask="url(#mask-2)"></path>
                        <path d="M90.40292,28.49746 C90.59672,27.59466 91.09632,27.14306 91.93472,27.14306 C92.77332,27.14306 93.19252,27.59466 93.33752,28.49746 L90.40292,28.49746 Z M91.93472,25.33726 C89.22612,25.33726 87.48452,26.88506 87.48452,29.52926 C87.48452,32.30246 89.16152,33.59246 91.93472,33.59246 C94.35332,33.59246 95.85272,32.41566 96.12692,31.01266 L93.41832,31.01266 C93.25692,31.27066 92.90232,31.72226 91.99912,31.72226 C91.04812,31.72226 90.48372,31.19006 90.35472,30.04526 L96.25592,30.04526 L96.25592,29.46466 C96.25592,26.78846 94.64352,25.33726 91.93472,25.33726 L91.93472,25.33726 Z" id="Fill-19" fill="#0A4F56" mask="url(#mask-2)"></path>
                        <path d="M102.70566,28.48144 L101.35126,28.28804 C100.46466,28.15884 100.25506,27.98144 100.25506,27.59464 C100.25506,27.28804 100.64186,27.01424 101.38386,27.01424 C101.98006,27.01424 102.64146,27.14304 102.64146,27.72344 L105.22106,27.72344 C105.22106,26.17564 103.73746,25.33724 101.41586,25.33724 C99.14266,25.33724 97.54606,26.24024 97.54606,28.04604 C97.54606,29.46484 98.49746,30.10984 100.19046,30.36784 L101.54486,30.56124 C102.27026,30.65804 102.64146,30.78684 102.64146,31.27064 C102.64146,31.70604 102.12546,31.91564 101.28686,31.91564 C100.62586,31.91564 99.93246,31.78644 99.93246,31.14164 L97.28826,31.14164 C97.28826,32.88304 98.94886,33.59244 101.28686,33.59244 C103.68926,33.59244 105.47886,32.75404 105.47886,30.81924 C105.47886,29.19084 104.09246,28.69084 102.70566,28.48144" id="Fill-20" fill="#0A4F56" mask="url(#mask-2)"></path>
                        <path d="M116.18496,24.56328 C117.47476,24.56328 118.18436,25.14368 118.37776,25.78868 L121.28016,25.78868 C121.00576,23.75728 119.15176,22.11268 116.18496,22.11268 C112.50896,22.11268 110.25156,24.49888 110.25156,27.85268 C110.25156,31.09348 112.33156,33.59248 115.92696,33.59248 C117.41016,33.59248 118.41016,33.12508 119.08716,32.39928 L119.15176,32.39928 L119.34516,33.39888 L121.21556,33.39888 L121.21556,27.27208 L116.18496,27.27208 L116.18496,29.33588 L118.68416,29.33588 C118.55496,30.48068 117.55576,31.14168 116.18496,31.14168 C114.37916,31.14168 113.28256,29.91648 113.28256,27.85268 C113.28256,25.78868 114.44356,24.56328 116.18496,24.56328" id="Fill-21" fill="#0A4F56" mask="url(#mask-2)"></path>
                        <path d="M126.10136,26.6916 L126.05276,26.6916 L126.05276,25.5308 L123.34416,25.5308 L123.34416,33.399 L126.18176,33.399 L126.18176,29.997 C126.18176,28.6588 126.74616,27.788 127.92316,27.788 C128.22956,27.788 128.53596,27.8686 128.89076,28.046 L129.27756,25.6596 C128.87436,25.3858 128.50376,25.3372 128.18096,25.3372 C127.18136,25.3372 126.48856,25.9016 126.10136,26.6916" id="Fill-22" fill="#0A4F56" mask="url(#mask-2)"></path>
                        <path d="M134.3082,31.59316 C133.3086,31.59316 132.696,30.81916 132.696,29.46476 C132.696,28.11056 133.3086,27.35256 134.3082,27.35256 C135.3078,27.35256 135.9208,28.11056 135.9208,29.46476 C135.9208,30.81916 135.3078,31.59316 134.3082,31.59316 M134.3082,25.33716 C131.7286,25.33716 129.7938,26.82076 129.7938,29.46476 C129.7938,32.17356 131.6642,33.59236 134.3082,33.59236 C136.8878,33.59236 138.8228,32.10916 138.8228,29.46476 C138.8228,26.75616 136.9526,25.33716 134.3082,25.33716" id="Fill-23" fill="#0A4F56" mask="url(#mask-2)"></path>
                        <path d="M145.78848,29.72276 C145.78848,30.88376 145.20808,31.52856 144.36948,31.52856 C143.66008,31.52856 143.14408,31.14176 143.14408,29.98076 L143.14408,25.53096 L140.30648,25.53096 L140.30648,30.28716 C140.30648,32.75416 141.78988,33.59236 143.46688,33.59236 C144.49868,33.59236 145.40128,33.14096 145.85308,32.30236 L145.91748,32.30236 L145.91748,33.39896 L148.62608,33.39896 L148.62608,25.53096 L145.78848,25.53096 L145.78848,29.72276 Z" id="Fill-24" fill="#0A4F56" mask="url(#mask-2)"></path>
                        <path d="M155.14024,31.59316 C154.10824,31.59316 153.52764,30.69036 153.52764,29.46476 L153.52764,29.38416 C153.56044,28.20716 154.12464,27.33656 155.14024,27.33656 C156.17204,27.33656 156.68804,28.17496 156.68804,29.40056 C156.68804,30.62576 156.17204,31.59316 155.14024,31.59316 M155.97864,25.33716 C154.62424,25.33716 153.85024,25.85316 153.46344,26.56276 L153.39884,26.56276 L153.39884,25.53076 L150.69024,25.53076 L150.69024,36.94596 L153.52764,36.94596 L153.52764,35.02736 C153.52764,34.49536 153.52764,33.39896 153.39884,32.36716 L153.46344,32.36716 C153.85024,33.07636 154.62424,33.59236 155.84984,33.59236 C157.91344,33.59236 159.59024,32.10916 159.59024,29.40056 C159.59024,26.69156 157.91344,25.33716 155.97864,25.33716" id="Fill-25" fill="#0A4F56" mask="url(#mask-2)"></path>
                        <path d="M38.9207,17.30596 L36.7967,19.42996 L32.2803,14.91356 L32.2803,9.33516 L38.9207,15.97576 C39.2873,16.34236 39.2873,16.93916 38.9207,17.30596 L38.9207,17.30596 Z M38.9207,22.69396 C39.2873,23.06076 39.2873,23.65756 38.9207,24.02436 L32.2803,30.66476 L32.2803,25.08636 L36.7967,20.56996 L38.9207,22.69396 Z M31.4741,35.28356 C31.4741,35.80196 31.0519,36.22396 30.5333,36.22396 L27.8609,36.22396 L31.4741,32.61096 L31.4741,35.28356 Z M24.0249,38.91996 C23.6721,39.27296 23.0483,39.27336 22.6947,38.91996 L20.8051,37.03036 L25.9147,37.03036 L24.0249,38.91996 Z M17.3067,38.91996 C16.9535,39.27296 16.3297,39.27336 15.9763,38.91996 L14.0867,37.03036 L19.1963,37.03036 L17.3067,38.91996 Z M9.4679,36.22396 C8.9495,36.22396 8.5273,35.80196 8.5273,35.28356 L8.5273,32.61096 L12.1405,36.22396 L9.4679,36.22396 Z M1.0809,24.02436 C0.7143,23.65756 0.7143,23.06076 1.0809,22.69396 L3.2049,20.56996 L7.7213,25.08636 L7.7213,30.66476 L1.0809,24.02436 Z M1.0809,17.30596 C0.7143,16.93916 0.7143,16.34236 1.0809,15.97576 L7.7213,9.33516 L7.7213,14.91356 L3.2049,19.42996 L1.0809,17.30596 Z M8.5273,4.71656 C8.5273,4.19796 8.9495,3.77596 9.4679,3.77596 L12.1405,3.77596 L8.5273,7.38916 L8.5273,4.71656 Z M15.9763,1.08016 C16.3299,0.72676 16.9537,0.72716 17.3067,1.08016 L19.1963,2.96976 L14.0867,2.96976 L15.9763,1.08016 Z M22.6947,1.08016 C22.8713,0.90336 23.1077,0.80616 23.3597,0.80616 C23.6123,0.80616 23.8485,0.90336 24.0249,1.08016 L25.9147,2.96976 L20.8051,2.96976 L22.6947,1.08016 Z M21.1425,3.77596 L26.7209,3.77596 L31.4741,8.52896 L31.4741,14.10736 L21.1425,3.77596 Z M8.5273,14.10736 L8.5273,8.52896 L13.2805,3.77596 L18.8587,3.77596 L8.5273,14.10736 Z M7.7213,23.94636 L3.7749,19.99996 L7.7213,16.05356 L7.7213,23.94636 Z M18.8587,36.22396 L13.2805,36.22396 L8.5273,31.47096 L8.5273,25.89256 L18.8587,36.22396 Z M31.4741,25.89256 L31.4741,31.47096 L26.7209,36.22396 L21.1425,36.22396 L31.4741,25.89256 Z M32.2803,16.05356 L36.2265,19.99996 L32.2803,23.94636 L32.2803,16.05356 Z M31.4741,24.75256 L20.0025,36.22396 L19.9989,36.22396 L8.5273,24.75256 L8.5273,15.24736 L19.9989,3.77596 L20.0025,3.77596 L31.4741,15.24736 L31.4741,24.75256 Z M30.5333,3.77596 C31.0519,3.77596 31.4741,4.19796 31.4741,4.71656 L31.4741,7.38916 L27.8609,3.77596 L30.5333,3.77596 Z M39.4907,15.40576 L32.2803,8.19516 L32.2803,4.71656 C32.2803,3.75336 31.4967,2.96976 30.5333,2.96976 L27.0547,2.96976 L24.5951,0.51016 C24.2663,0.18096 23.8277,-4e-05 23.3597,-4e-05 C22.8921,-4e-05 22.4535,0.18096 22.1249,0.51016 L20.0007,2.63416 L17.8767,0.51016 C17.5479,0.18096 17.1093,-4e-05 16.6415,-4e-05 C16.1739,-4e-05 15.7351,0.18096 15.4065,0.51016 L12.9467,2.96976 L9.4679,2.96976 C8.5049,2.96976 7.7213,3.75336 7.7213,4.71656 L7.7213,8.19516 L0.5107,15.40576 C-0.1703,16.08676 -0.1703,17.19496 0.5107,17.87596 L2.6347,19.99996 L0.5107,22.12396 C-0.1703,22.80516 -0.1703,23.91336 0.5107,24.59436 L7.7213,31.80476 L7.7213,35.28356 C7.7213,36.24676 8.5049,37.03036 9.4679,37.03036 L12.9467,37.03036 L15.4065,39.48996 C15.7351,39.81896 16.1739,39.99996 16.6415,39.99996 C17.1093,39.99996 17.5479,39.81896 17.8767,39.48996 L20.0007,37.36596 L22.1249,39.48996 C22.4535,39.81896 22.8921,39.99996 23.3597,39.99996 C23.8277,39.99996 24.2663,39.81896 24.5951,39.48996 L27.0547,37.03036 L30.5333,37.03036 C31.4967,37.03036 32.2803,36.24676 32.2803,35.28356 L32.2803,31.80476 L39.4907,24.59436 C40.1717,23.91336 40.1717,22.80516 39.4907,22.12396 L37.3665,19.99996 L39.4907,17.87596 C40.1717,17.19496 40.1717,16.08676 39.4907,15.40576 L39.4907,15.40576 Z" id="Fill-26" fill="#0A4F56" mask="url(#mask-2)"></path>
                        <path d="M22.59316,17.69434 C22.59316,18.38774 22.20636,18.83914 21.17436,18.83914 L18.78796,18.83914 L18.78796,16.64654 L21.23876,16.64654 C22.20636,16.64654 22.59316,17.09794 22.59316,17.69434 L22.59316,17.69434 Z M22.98016,22.06394 C22.98016,22.83794 22.52876,23.35374 21.48056,23.35374 L18.78796,23.35374 L18.78796,20.83834 L21.49676,20.83834 C22.46396,20.83834 22.98016,21.29014 22.98016,22.06394 L22.98016,22.06394 Z M15.82136,14.45354 L15.82136,25.54654 L22.14176,25.54654 C24.67296,25.54654 26.01116,24.14374 26.01116,22.25734 C26.01116,20.96754 25.22136,19.91954 23.81856,19.67774 L23.81856,19.61314 C25.04376,19.30674 25.55976,18.40374 25.55976,17.35594 C25.55976,15.53394 24.35036,14.45354 21.81896,14.45354 L15.82136,14.45354 Z" id="Fill-27" fill="#0A4F56" mask="url(#mask-2)"></path>
                    </g>
                </g>
            </g>
        </g>
    </g>
</svg>