<?xml version="1.0" encoding="UTF-8"?>
<svg width="40px" height="40px" viewBox="0 0 40 40" version="1.1" xmlns="http://www.w3.org/2000/svg" xmlns:xlink="http://www.w3.org/1999/xlink">
    <!-- Generator: Sketch 46.2 (44496) - http://www.bohemiancoding.com/sketch -->
    <title>Logo Mark/Gold</title>
    <desc>Created with Sketch.</desc>
    <defs>
        <polygon id="path-1" points="39.8354191 0 6.63900415e-05 0 6.63900415e-05 39.9999833 39.8354191 39.9999833 39.8354191 4.73695157e-15"></polygon>
    </defs>
    <g id="Homepage" stroke="none" stroke-width="1" fill="none" fill-rule="evenodd">
        <g id="Desktop" transform="translate(-56.000000, -3808.000000)">
            <g id="Footer" transform="translate(0.000000, 3688.000000)">
                <g id="Logo-Mark/Gold" transform="translate(56.000000, 120.000000)">
                    <g>
                        <g id="Group-3">
                            <mask id="mask-2" fill="white">
                                <use xlink:href="#path-1"></use>
                            </mask>
                            <g id="Clip-2"></g>
                            <path d="M38.7591535,17.3059833 L36.6439668,19.4299833 L32.1463734,14.91365 L32.1463734,9.33531667 L38.7591535,15.97565 C39.1242988,16.3424833 39.1242988,16.93915 38.7591535,17.3059833 L38.7591535,17.3059833 Z M38.7591535,22.6939833 C39.1242988,23.0608167 39.1242988,23.6574833 38.7591535,24.0243167 L32.1463734,30.66465 L32.1463734,25.0864833 L36.6439668,20.5699833 L38.7591535,22.6939833 Z M31.3433859,35.2834833 C31.3433859,35.80215 30.9233029,36.2239833 30.4067884,36.2239833 L27.7453776,36.2239833 L31.3433859,32.6109833 L31.3433859,35.2834833 Z M23.9252946,38.9199833 C23.5739253,39.2729833 22.9526805,39.2733167 22.6006473,38.9199833 L20.7188216,37.0303167 L25.8071203,37.0303167 L23.9252946,38.9199833 Z M17.2348382,38.9199833 C16.8831369,39.2729833 16.2618921,39.2733167 15.9100249,38.9199833 L14.0283651,37.0303167 L19.1166639,37.0303167 L17.2348382,38.9199833 Z M9.4286971,36.2239833 C8.91218257,36.2239833 8.49209959,35.80215 8.49209959,35.2834833 L8.49209959,32.6109833 L12.0901079,36.2239833 L9.4286971,36.2239833 Z M1.07633195,24.0243167 C0.711186722,23.6574833 0.711186722,23.0608167 1.07633195,22.6939833 L3.19151867,20.5699833 L7.68911203,25.0864833 L7.68911203,30.66465 L1.07633195,24.0243167 Z M1.07633195,17.3059833 C0.711186722,16.93915 0.711186722,16.3424833 1.07633195,15.97565 L7.68911203,9.33531667 L7.68911203,14.91365 L3.19151867,19.4299833 L1.07633195,17.3059833 Z M8.49209959,4.71648333 C8.49209959,4.19798333 8.91218257,3.77598333 9.4286971,3.77598333 L12.0901079,3.77598333 L8.49209959,7.38898333 L8.49209959,4.71648333 Z M15.9100249,1.08015 C16.2622241,0.72665 16.8833029,0.72715 17.2348382,1.08015 L19.1166639,2.96965 L14.0283651,2.96965 L15.9100249,1.08015 Z M22.6006473,1.08015 C22.7765809,0.903316667 23.0117676,0.80615 23.262888,0.80615 C23.5141743,0.80615 23.749527,0.903316667 23.9252946,1.08015 L25.8071203,2.96965 L20.7188216,2.96965 L22.6006473,1.08015 Z M21.0549212,3.77598333 L26.6101079,3.77598333 L31.3433859,8.52898333 L31.3433859,14.1074833 L21.0549212,3.77598333 Z M8.49209959,14.1074833 L8.49209959,8.52898333 L13.2253776,3.77598333 L18.7805643,3.77598333 L8.49209959,14.1074833 Z M7.68911203,23.9463167 L3.75915353,19.9999833 L7.68911203,16.05365 L7.68911203,23.9463167 Z M18.7805643,36.2239833 L13.2253776,36.2239833 L8.49209959,31.4709833 L8.49209959,25.89265 L18.7805643,36.2239833 Z M31.3433859,25.89265 L31.3433859,31.4709833 L26.6101079,36.2239833 L21.0549212,36.2239833 L31.3433859,25.89265 Z M32.1463734,16.05365 L36.076332,19.9999833 L32.1463734,23.9463167 L32.1463734,16.05365 Z M31.3433859,24.75265 L19.9196515,36.2239833 L19.915834,36.2239833 L8.49209959,24.75265 L8.49209959,15.2473167 L19.915834,3.77598333 L19.9196515,3.77598333 L31.3433859,15.2473167 L31.3433859,24.75265 Z M30.4067884,3.77598333 C30.9233029,3.77598333 31.3433859,4.19798333 31.3433859,4.71648333 L31.3433859,7.38898333 L27.7453776,3.77598333 L30.4067884,3.77598333 Z M39.3267884,15.40565 L32.1463734,8.19515 L32.1463734,4.71648333 C32.1463734,3.75331667 31.3659585,2.96965 30.4067884,2.96965 L26.942556,2.96965 L24.4929295,0.509983333 C24.1656266,0.180983333 23.7287801,-1.66666667e-05 23.262888,-1.66666667e-05 C22.7971618,-1.66666667e-05 22.3604813,0.180983333 22.0330124,0.509983333 L19.9176598,2.63398333 L17.802473,0.509983333 C17.4750041,0.180983333 17.0383237,-1.66666667e-05 16.5724315,-1.66666667e-05 C16.1067054,-1.66666667e-05 15.6698589,0.180983333 15.342556,0.509983333 L12.8929295,2.96965 L9.4286971,2.96965 C8.46952697,2.96965 7.68911203,3.75331667 7.68911203,4.71648333 L7.68911203,8.19515 L0.508697095,15.40565 C-0.169477178,16.08665 -0.169477178,17.1949833 0.508697095,17.8759833 L2.62388382,19.9999833 L0.508697095,22.1239833 C-0.169477178,22.8049833 -0.169477178,23.9133167 0.508697095,24.5943167 L7.68911203,31.8048167 L7.68911203,35.2834833 C7.68911203,36.24665 8.46952697,37.0303167 9.4286971,37.0303167 L12.8929295,37.0303167 L15.342556,39.4899833 C15.6698589,39.8189833 16.1067054,39.9999833 16.5724315,39.9999833 C17.0383237,39.9999833 17.4750041,39.8189833 17.802473,39.4899833 L19.9176598,37.3659833 L22.0330124,39.4899833 C22.3604813,39.8189833 22.7971618,39.9999833 23.262888,39.9999833 C23.7287801,39.9999833 24.1656266,39.8189833 24.4929295,39.4899833 L26.942556,37.0303167 L30.4067884,37.0303167 C31.3659585,37.0303167 32.1463734,36.24665 32.1463734,35.2834833 L32.1463734,31.8048167 L39.3267884,24.5943167 C40.0049627,23.9133167 40.0049627,22.8049833 39.3267884,22.1239833 L37.2116017,19.9999833 L39.3267884,17.8759833 C40.0049627,17.1949833 40.0049627,16.08665 39.3267884,15.40565 L39.3267884,15.40565 Z" id="Fill-1" fill="#F59E50" mask="url(#mask-2)"></path>
                        </g>
                        <path d="M22.417522,17.9119404 C22.417522,18.6131809 22.0286361,19.0698302 20.9913276,19.0698302 L18.5919969,19.0698302 L18.5919969,16.8521568 L21.0560023,16.8521568 C22.0286361,16.8521568 22.417522,17.3086375 22.417522,17.9119404 L22.417522,17.9119404 Z M22.8064079,22.3314417 C22.8064079,23.1141004 22.3526798,23.6359852 21.2989513,23.6359852 L18.5919969,23.6359852 L18.5919969,21.0917967 L21.3152038,21.0917967 C22.2878375,21.0917967 22.8064079,21.5486145 22.8064079,22.3314417 L22.8064079,22.3314417 Z M15.6097561,14.6341463 L15.6097561,25.8536585 L21.9637938,25.8536585 C24.5083913,25.8536585 25.8536585,24.4348263 25.8536585,22.52698 C25.8536585,21.2224365 25.0594667,20.1626529 23.6493572,19.9177244 L23.6493572,19.8524888 C24.8811924,19.5428304 25.3999303,18.6293634 25.3999303,17.5695799 C25.3999303,15.7269691 24.1841801,14.6341463 21.6392475,14.6341463 L15.6097561,14.6341463 Z" id="Fill-4" fill="#F59E50"></path>
                    </g>
                </g>
            </g>
        </g>
    </g>
</svg>