<?xml version="1.0" encoding="UTF-8"?>
<svg width="22px" height="22px" viewBox="0 0 22 22" version="1.1" xmlns="http://www.w3.org/2000/svg" xmlns:xlink="http://www.w3.org/1999/xlink">
    <!-- Generator: Sketch 46.2 (44496) - http://www.bohemiancoding.com/sketch -->
    <title>Phone Icon</title>
    <desc>Created with Sketch.</desc>
    <defs></defs>
    <g id="Homepage" stroke="none" stroke-width="1" fill="none" fill-rule="evenodd">
        <g id="Mobile" transform="translate(-329.000000, -19.000000)" stroke="#fff">
            <g id="Navigation/Mobile/Primary">
                <g id="Phone-Icon" transform="translate(330.000000, 20.000000)">
                    <path d="M4.63867587,8.75316147 C6.14498125,11.5535063 8.45294595,13.8607666 11.2526283,15.3644735 L13.4386688,13.1764466 C13.7443002,12.8708153 14.153632,12.7044444 14.5766667,12.7044444 C14.7445295,12.7044444 14.9125563,12.7304196 15.0755751,12.7825974 C16.2991853,13.18321 17.5807462,13.39 18.8888889,13.39 C19.7792266,13.39 20.5,14.1102753 20.5,15 L20.5,18.8888889 C20.5,19.7794757 19.7794757,20.5 18.8888889,20.5 C8.1816354,20.5 -0.5,11.8183646 -0.5,1.11111111 C-0.5,0.220524292 0.220524292,-0.5 1.11111111,-0.5 L5,-0.5 C5.88972474,-0.5 6.61,0.220773379 6.61,1.11111111 C6.61,2.41816407 6.81679034,3.69972703 7.21832233,4.92726268 C7.40167359,5.49879005 7.25551707,6.13093944 6.82411452,6.56076915 L4.63867474,8.7531626 Z" id="Imported-Layers"></path>
                </g>
            </g>
        </g>
    </g>
</svg>
