<?xml version="1.0" encoding="UTF-8"?>
<svg width="20px" height="16px" viewBox="0 0 20 16" version="1.1" xmlns="http://www.w3.org/2000/svg" xmlns:xlink="http://www.w3.org/1999/xlink">
    <!-- Generator: Sketch 46.2 (44496) - http://www.bohemiancoding.com/sketch -->
    <title>Page 1</title>
    <desc>Created with Sketch.</desc>
    <defs></defs>
    <g id="Homepage" stroke="none" stroke-width="1" fill="none" fill-rule="evenodd">
        <g id="Desktop" transform="translate(-730.000000, -3704.000000)" fill="#F59E50">
            <g id="Footer" transform="translate(0.000000, 3688.000000)">
                <g id="Social-Media" transform="translate(650.000000, 16.000000)">
                    <g id="Page-1" transform="translate(80.000000, 0.000000)">
                        <path d="M6.20215367,16 C13.6442806,16 17.7141284,9.84492416 17.7141284,4.50773214 C17.7141284,4.33283131 17.7105786,4.15879672 17.7025325,3.98562837 C18.492474,3.41540915 19.1792357,2.70407229 19.7209302,1.89422083 C18.9959888,2.21567296 18.2158288,2.43238933 17.3974102,2.5300377 C18.23271,2.03014106 18.8741135,1.23887429 19.1765537,0.295780055 C18.3945793,0.75842857 17.5290672,1.09500044 16.6074687,1.27612241 C15.869117,0.491155538 14.8176759,0 13.6540621,0 C11.419523,0 9.60740614,1.80901476 9.60740614,4.03886248 C9.60740614,4.35590467 9.6429827,4.66412702 9.71240037,4.95982833 C6.349824,4.7910699 3.36794047,3.18373052 1.37257674,0.739765132 C1.02477842,1.33652266 0.824650419,2.03014106 0.824650419,2.76982744 C0.824650419,4.17123901 1.5390214,5.40830208 2.62517135,6.13192373 C1.9615226,6.11160657 1.33794679,5.92953962 0.792623628,5.62667218 C0.791755907,5.6435244 0.791755907,5.66045536 0.791755907,5.67825257 C0.791755907,7.63460611 2.18665674,9.26769631 4.03782102,9.63805136 C3.69798995,9.73034482 3.34041005,9.78019274 2.97123423,9.78019274 C2.71052353,9.78019274 2.45699126,9.75436317 2.21055851,9.70727146 C2.72566921,11.3120121 4.21925358,12.4797764 5.99035088,12.5126933 C4.6053894,13.5961177 2.86095479,14.2416994 0.965221209,14.2416994 C0.638800372,14.2416994 0.31671814,14.223036 0,14.1857091 C1.79073935,15.3313449 3.9168134,16 6.20215367,16" id="Fill-1"></path>
                    </g>
                </g>
            </g>
        </g>
    </g>
</svg>