<?xml version="1.0" encoding="utf-8"?>
<!-- Generator: Adobe Illustrator 21.1.0, SVG Export Plug-In . SVG Version: 6.00 Build 0)  -->
<svg version="1.1" id="Layer_1" xmlns="http://www.w3.org/2000/svg" xmlns:xlink="http://www.w3.org/1999/xlink" x="0px" y="0px"
	 viewBox="0 0 204 204" style="enable-background:new 0 0 204 204;" xml:space="preserve">
<style type="text/css">
	.st0{fill:#FFFFFF;}
</style>
<path class="st0" d="M199.8,79L163.7,43V25.6c0-4.8-3.9-8.7-8.7-8.7h-17.4L125.3,4.6c-1.6-1.6-3.8-2.6-6.2-2.6
	c-2.3,0-4.5,0.9-6.2,2.6l-10.6,10.6L91.7,4.6C90.1,2.9,87.9,2,85.5,2c-2.3,0-4.5,0.9-6.2,2.6L67,16.8H49.7c-4.8,0-8.7,3.9-8.7,8.7
	V43L4.9,79c-3.4,3.4-3.4,8.9,0,12.4L15.5,102L4.9,112.6c-3.4,3.4-3.4,8.9,0,12.4L40.9,161v17.4c0,4.8,3.9,8.7,8.7,8.7H67l12.3,12.3
	c1.6,1.6,3.8,2.6,6.2,2.6c2.3,0,4.5-0.9,6.2-2.6l10.6-10.6l10.6,10.6c1.6,1.6,3.8,2.6,6.2,2.6c2.3,0,4.5-0.9,6.2-2.6l12.3-12.3H155
	c4.8,0,8.7-3.9,8.7-8.7V161l36.1-36.1c3.4-3.4,3.4-8.9,0-12.4L189.1,102l10.6-10.6C203.2,88,203.2,82.4,199.8,79z M155,20.9
	c2.6,0,4.7,2.1,4.7,4.7v13.4l-18.1-18.1H155z M159.7,125.8l-57.4,57.4h0l-57.4-57.4V78.2l57.4-57.4h0l57.4,57.4V125.8z M163.7,82.3
	l19.7,19.7l-19.7,19.7V82.3z M159.7,131.5v27.9l-23.8,23.8H108L159.7,131.5z M96.6,183.1H68.7l-23.8-23.8v-27.9L96.6,183.1z
	 M40.9,121.7L21.2,102l19.7-19.7V121.7z M44.9,72.5V44.6l23.8-23.8h27.9L44.9,72.5z M108,20.9h27.9l23.8,23.8v27.9L108,20.9z
	 M115.8,7.4c0.9-0.9,2.1-1.4,3.3-1.4c1.3,0,2.4,0.5,3.3,1.4l9.4,9.4h-25.5L115.8,7.4z M82.2,7.4c1.8-1.8,4.9-1.8,6.7,0l9.4,9.4H72.7
	L82.2,7.4z M44.9,25.6c0-2.6,2.1-4.7,4.7-4.7H63L44.9,38.9V25.6z M7.7,88.5c-1.8-1.8-1.8-4.8,0-6.7l33.2-33.2v27.9L18.3,99.1
	L7.7,88.5z M7.7,122.1c-1.8-1.8-1.8-4.8,0-6.7l10.6-10.6l22.6,22.6v27.9L7.7,122.1z M49.7,183.1c-2.6,0-4.7-2.1-4.7-4.7v-13.4
	L63,183.1H49.7z M88.8,196.6c-1.8,1.8-4.9,1.8-6.7,0l-9.4-9.4h25.5L88.8,196.6z M122.4,196.6c-1.8,1.8-4.9,1.8-6.7,0l-9.4-9.4h25.5
	L122.4,196.6z M159.7,178.4c0,2.6-2.1,4.7-4.7,4.7h-13.4l18.1-18.1V178.4z M196.9,115.5c1.8,1.8,1.8,4.8,0,6.7l-33.2,33.2v-27.9
	l22.6-22.6L196.9,115.5z M196.9,88.5l-10.6,10.6l-22.6-22.6V48.7l33.2,33.2C198.7,83.7,198.7,86.7,196.9,88.5z"/>
<path class="st0" d="M76.4,74.3v55.5H108c12.7,0,19.3-7,19.3-16.4c0-6.4-3.9-11.7-11-12.9v-0.3c6.1-1.5,8.7-6,8.7-11.3
	c0-9.1-6-14.5-18.7-14.5H76.4z M112.2,112.3c0,3.9-2.3,6.4-7.5,6.4H91.3v-12.6h13.5C109.6,106.2,112.2,108.5,112.2,112.3z
	 M110.3,90.5c0,3.5-1.9,5.7-7.1,5.7H91.3v-11h12.3C108.3,85.2,110.3,87.5,110.3,90.5z"/>
</svg>
