<?xml version="1.0" encoding="utf-8"?>
<!-- Generator: Adobe Illustrator 21.1.0, SVG Export Plug-In . SVG Version: 6.00 Build 0)  -->
<svg version="1.1" id="Layer_1" xmlns="http://www.w3.org/2000/svg" xmlns:xlink="http://www.w3.org/1999/xlink" x="0px" y="0px"
	 viewBox="0 0 804 204" style="enable-background:new 0 0 804 204;" xml:space="preserve">
<style type="text/css">
	.st0{fill:#FFFFFF;}
</style>
<g>
	<path class="st0" d="M296,70.6c0-6.4-3.9-11.7-11-12.9v-0.3c6.1-1.5,8.7-6,8.7-11.3c0-9.1-6-14.5-18.7-14.5h-30V87h31.6
		C289.4,87,296,80,296,70.6z M259.9,42.5h12.3c4.8,0,6.8,2.3,6.8,5.2c0,3.5-1.9,5.7-7.1,5.7h-11.9V42.5z M259.9,76.1V63.5h13.5
		c4.8,0,7.4,2.3,7.4,6.1s-2.3,6.4-7.5,6.4H259.9z"/>
	<path class="st0" d="M319.6,88c5.2,0,9.7-2.3,11.9-6.4h0.3V87h13.5V47.7h-14.2v21c0,5.8-2.9,9-7.1,9c-3.5,0-6.1-1.9-6.1-7.7V47.7
		h-14.2v23.8C303.8,83.8,311.2,88,319.6,88z"/>
	<path class="st0" d="M369.9,70c0-6.7,2.8-11,8.7-11c1.5,0,3.1,0.4,4.8,1.3l1.9-11.9c-2-1.4-3.9-1.6-5.5-1.6c-5,0-8.5,2.8-10.4,6.8
		h-0.2v-5.8h-13.5V87h14.2V70z"/>
	<rect x="390.9" y="28" class="st0" width="14.2" height="59"/>
	<rect x="415" y="28" class="st0" width="14.8" height="11.6"/>
	<rect x="415.4" y="47.7" class="st0" width="14.2" height="39.3"/>
	<path class="st0" d="M465.7,46.7c-5.2,0-9.7,2.3-11.9,6.4h-0.3v-5.5h-13.5V87h14.2v-21c0-5.8,2.9-9,7.1-9c3.5,0,6.1,1.9,6.1,7.7V87
		h14.2V63.2C481.5,50.9,474.1,46.7,465.7,46.7z"/>
	<path class="st0" d="M520.2,52.8h-0.3c-1.9-3.5-5.8-6.1-11.9-6.1c-10.3,0-18.7,7.4-18.7,21c0,13.5,8.4,20.3,18.1,20.3
		c6.8,0,10.6-2.6,12.6-6.1h0.3v2.9c0,7.7-1.9,11.6-9,11.6c-4.5,0-7.1-1.9-7.4-4.5h-13.2c0.6,9.5,8.1,13.5,20.6,13.5
		c15,0,22.6-6,22.6-20.6V47.7h-13.5V52.8z M511.5,78c-5.2,0-7.7-4.2-7.7-10.3s2.6-11,7.7-11c5.2,0,8.1,4.5,8.1,10.6
		C519.5,73.5,516.6,78,511.5,78z"/>
	<path class="st0" d="M562.7,87h6.9v-11H566c-4.5,0-5.5-1.6-5.5-5.8V57.7h9v-10h-9V35.8h-14.2v11.9h-7.4v10h7.4v13.5
		C546.3,83.5,549.5,87,562.7,87z"/>
	<path class="st0" d="M597.9,88c12.9,0,22.6-7.4,22.6-20.6c0-13.5-9.4-20.6-22.6-20.6c-12.9,0-22.6,7.4-22.6,20.6
		C575.3,80.9,584.7,88,597.9,88z M597.9,56.8c5,0,8.1,3.8,8.1,10.6c0,6.8-3.1,10.6-8.1,10.6s-8.1-3.9-8.1-10.6
		C589.8,60.6,592.9,56.8,597.9,56.8z"/>
	<path class="st0" d="M655.9,64.8V87h14.2V63.2c0-12.3-7.4-16.5-15.8-16.5c-5.2,0-9.7,2.3-11.9,6.4h-0.3v-5.5h-13.5V87h14.2v-21
		c0-5.8,2.9-9,7.1-9C653.3,57,655.9,59,655.9,64.8z"/>
	<path class="st0" d="M274.4,124.8c6.4,0,10,2.9,11,6.1h14.5c-1.4-10.2-10.6-18.4-25.5-18.4c-18.4,0-29.7,11.9-29.7,28.7
		c0,16.2,10.4,28.7,28.4,28.7c7.4,0,12.4-2.3,15.8-6h0.3l1,5h9.4v-30.6h-25.2v10.3h12.5c-0.6,5.7-5.6,9-12.5,9
		c-9,0-14.5-6.1-14.5-16.4C259.9,130.9,265.7,124.8,274.4,124.8z"/>
	<path class="st0" d="M328.9,128.7c-9.6,0-18.4,3.9-19.3,14.2h13.2c0.3-3.4,2.3-5.2,6.1-5.2c3.9,0,5.5,2.3,5.5,4.5
		c0,2.3-1,3.1-4.8,3.5l-7.4,1c-9.6,1.3-13.9,5.2-13.9,11.9c0,6.6,4.2,11.3,13.5,11.3c6.4,0,10.6-2.3,12.9-5.6h0.3v4.7h13.5v-26.1
		C348.6,133.2,342.1,128.7,328.9,128.7z M334.4,153.8c0,5.2-4.1,7.1-7.7,7.1c-2.7,0-4.5-1.1-4.5-3.9c0-1.9,1.3-3.5,4.2-3.9l4.5-0.6
		c1.6-0.2,2.8-0.8,3.5-1.9V153.8z"/>
	<path class="st0" d="M411.2,128.7c-4.6,0-10.2,1.5-13.4,7.4c-2.5-5.4-7.6-7.4-13.4-7.4c-5.2,0-9.7,2.3-11.9,6.4h-0.3v-5.5h-13.5
		V169h14.2v-21.4c0-5.8,3-8.5,6.8-8.5c3.2,0,5.8,1.6,5.8,7.4V169h14.2v-21.5c0-5.7,3-8.5,6.8-8.5c3.2,0,5.8,1.6,5.8,7.4V169h14.2
		v-23.8C426.3,132.9,419.5,128.7,411.2,128.7z"/>
	<path class="st0" d="M456,128.7c-13.5,0-22.3,7.7-22.3,21c0,13.9,8.4,20.3,22.3,20.3c12.1,0,19.6-5.9,21-12.9h-13.5
		c-0.8,1.3-2.6,3.5-7.1,3.5c-4.8,0-7.6-2.7-8.2-8.4h29.5v-2.9C477.6,135.9,469.5,128.7,456,128.7z M448.3,144.5
		c1-4.5,3.5-6.8,7.7-6.8c4.2,0,6.3,2.3,7,6.8H448.3z"/>
	<path class="st0" d="M509.8,144.4l-6.8-1c-4.4-0.6-5.5-1.5-5.5-3.5c0-1.5,1.9-2.9,5.6-2.9c3,0,6.3,0.6,6.3,3.5h12.9
		c0-7.7-7.4-11.9-19-11.9c-11.4,0-19.3,4.5-19.3,13.5c0,7.1,4.8,10.3,13.2,11.6l6.8,1c3.6,0.5,5.5,1.1,5.5,3.5
		c0,2.2-2.6,3.2-6.8,3.2c-3.3,0-6.8-0.6-6.8-3.9h-13.2c0,8.7,8.3,12.3,20,12.3c12,0,21-4.2,21-13.9
		C523.7,148,516.8,145.5,509.8,144.4z"/>
	<path class="st0" d="M577.2,124.8c6.4,0,10,2.9,11,6.1h14.5c-1.4-10.2-10.6-18.4-25.5-18.4c-18.4,0-29.7,11.9-29.7,28.7
		c0,16.2,10.4,28.7,28.4,28.7c7.4,0,12.4-2.3,15.8-6h0.3l1,5h9.4v-30.6h-25.2v10.3h12.5c-0.6,5.7-5.6,9-12.5,9
		c-9,0-14.5-6.1-14.5-16.4C562.7,130.9,568.5,124.8,577.2,124.8z"/>
	<path class="st0" d="M626.8,135.5h-0.2v-5.8H613V169h14.2v-17c0-6.7,2.8-11,8.7-11c1.5,0,3.1,0.4,4.8,1.3l1.9-11.9
		c-2-1.4-3.9-1.6-5.5-1.6C632.2,128.7,628.8,131.5,626.8,135.5z"/>
	<path class="st0" d="M667.9,128.7c-12.9,0-22.6,7.4-22.6,20.6c0,13.5,9.4,20.6,22.6,20.6c12.9,0,22.6-7.4,22.6-20.6
		C690.4,135.8,681.1,128.7,667.9,128.7z M667.9,160c-5,0-8.1-3.9-8.1-10.6c0-6.8,3.1-10.6,8.1-10.6s8.1,3.8,8.1,10.6
		C675.9,156.1,672.9,160,667.9,160z"/>
	<path class="st0" d="M725.3,150.6c0,5.8-2.9,9-7.1,9c-3.5,0-6.1-1.9-6.1-7.7v-22.2h-14.2v23.8c0,12.3,7.4,16.5,15.8,16.5
		c5.2,0,9.7-2.3,11.9-6.4h0.3v5.5h13.5v-39.3h-14.2V150.6z"/>
	<path class="st0" d="M776.2,128.7c-6.8,0-10.6,2.6-12.6,6.1h-0.3v-5.2h-13.5v57.1H764v-9.6c0-2.7,0-8.1-0.6-13.3h0.3
		c1.9,3.5,5.8,6.1,11.9,6.1c10.3,0,18.7-7.4,18.7-21C794.3,135.5,785.9,128.7,776.2,128.7z M772,160c-5.2,0-8.1-4.5-8.1-10.6v-0.4
		c0.2-5.9,3-10.2,8.1-10.2c5.2,0,7.7,4.2,7.7,10.3C779.8,155.1,777.2,160,772,160z"/>
	<path class="st0" d="M205.8,79L169.7,43V25.6c0-4.8-3.9-8.7-8.7-8.7h-17.4L131.3,4.6c-1.6-1.6-3.8-2.6-6.2-2.6
		c-2.3,0-4.5,0.9-6.2,2.6l-10.6,10.6L97.7,4.6C96.1,2.9,93.9,2,91.5,2c-2.3,0-4.5,0.9-6.2,2.6L73,16.8H55.7c-4.8,0-8.7,3.9-8.7,8.7
		V43L10.9,79c-3.4,3.4-3.4,8.9,0,12.4L21.5,102l-10.6,10.6c-3.4,3.4-3.4,8.9,0,12.4L46.9,161v17.4c0,4.8,3.9,8.7,8.7,8.7H73
		l12.3,12.3c1.6,1.6,3.8,2.6,6.2,2.6c2.3,0,4.5-0.9,6.2-2.6l10.6-10.6l10.6,10.6c1.6,1.6,3.8,2.6,6.2,2.6c2.3,0,4.5-0.9,6.2-2.6
		l12.3-12.3H161c4.8,0,8.7-3.9,8.7-8.7V161l36.1-36.1c3.4-3.4,3.4-8.9,0-12.4L195.1,102l10.6-10.6C209.2,88,209.2,82.4,205.8,79z
		 M161,20.9c2.6,0,4.7,2.1,4.7,4.7v13.4l-18.1-18.1H161z M165.7,125.8l-57.4,57.4h0l-57.4-57.4V78.2l57.4-57.4h0l57.4,57.4V125.8z
		 M169.7,82.3l19.7,19.7l-19.7,19.7V82.3z M165.7,131.5v27.9l-23.8,23.8H114L165.7,131.5z M102.6,183.1H74.7l-23.8-23.8v-27.9
		L102.6,183.1z M46.9,121.7L27.2,102l19.7-19.7V121.7z M50.9,72.5V44.6l23.8-23.8h27.9L50.9,72.5z M114,20.9h27.9l23.8,23.8v27.9
		L114,20.9z M121.8,7.4c0.9-0.9,2.1-1.4,3.3-1.4c1.3,0,2.4,0.5,3.3,1.4l9.4,9.4h-25.5L121.8,7.4z M88.2,7.4c1.8-1.8,4.9-1.8,6.7,0
		l9.4,9.4H78.7L88.2,7.4z M50.9,25.6c0-2.6,2.1-4.7,4.7-4.7H69L50.9,38.9V25.6z M13.7,88.5c-1.8-1.8-1.8-4.8,0-6.7l33.2-33.2v27.9
		L24.3,99.1L13.7,88.5z M13.7,122.1c-1.8-1.8-1.8-4.8,0-6.7l10.6-10.6l22.6,22.6v27.9L13.7,122.1z M55.7,183.1
		c-2.6,0-4.7-2.1-4.7-4.7v-13.4L69,183.1H55.7z M94.8,196.6c-1.8,1.8-4.9,1.8-6.7,0l-9.4-9.4h25.5L94.8,196.6z M128.4,196.6
		c-1.8,1.8-4.9,1.8-6.7,0l-9.4-9.4h25.5L128.4,196.6z M165.7,178.4c0,2.6-2.1,4.7-4.7,4.7h-13.4l18.1-18.1V178.4z M202.9,115.5
		c1.8,1.8,1.8,4.8,0,6.7l-33.2,33.2v-27.9l22.6-22.6L202.9,115.5z M202.9,88.5l-10.6,10.6l-22.6-22.6V48.7l33.2,33.2
		C204.7,83.7,204.7,86.7,202.9,88.5z"/>
	<path class="st0" d="M82.4,74.3v55.5H114c12.7,0,19.3-7,19.3-16.4c0-6.4-3.9-11.7-11-12.9v-0.3c6.1-1.5,8.7-6,8.7-11.3
		c0-9.1-6-14.5-18.7-14.5H82.4z M118.2,112.3c0,3.9-2.3,6.4-7.5,6.4H97.3v-12.6h13.5C115.6,106.2,118.2,108.5,118.2,112.3z
		 M116.3,90.5c0,3.5-1.9,5.7-7.1,5.7H97.3v-11h12.3C114.3,85.2,116.3,87.5,116.3,90.5z"/>
</g>
</svg>
